<?xml version="1.0" encoding="utf-8"?>
<!-- Generator: Adobe Illustrator 19.1.0, SVG Export Plug-In . SVG Version: 6.00 Build 0)  -->
<svg version="1.1" id="Capa_1" xmlns="http://www.w3.org/2000/svg" xmlns:xlink="http://www.w3.org/1999/xlink" x="0px" y="0px"
	 viewBox="163.4 60.4 191 182.2" style="enable-background:new 163.4 60.4 191 182.2;" xml:space="preserve">
<style type="text/css">
	.st0{fill:#E5C395;}
	.st1{fill:#DBBA8F;}
</style>
<path class="st0" d="M-8.7,144.4v15.4h38.4v82.7H-53v-82.7h0v-15.4c0-31.2,9-54.4,26.7-68.9c12.3-10,27.8-15.1,46.1-15.1v44.3
	C9.9,104.7-8.7,104.7-8.7,144.4z M128.1,104.7V60.4c-18.3,0-33.9,5.1-46.1,15.1C64.3,90,55.3,113.2,55.3,144.4v15.4l0,0v82.7H138
	v-82.7H99.6v-15.4C99.6,104.7,118.1,104.7,128.1,104.7z"/>
<path class="st1" d="M310.1,158.5v-15.4h-38.4V60.4h82.7v82.7h0v15.4c0,31.2-9,54.4-26.7,68.9c-12.3,10-27.8,15.1-46.1,15.1v-44.3
	C291.6,198.2,310.1,198.2,310.1,158.5z M173.3,198.2v44.3c18.3,0,33.9-5.1,46.1-15.1c17.7-14.5,26.7-37.7,26.7-68.9v-15.4l0,0V60.4
	h-82.7v82.7h38.4v15.4C201.8,198.2,183.3,198.2,173.3,198.2z"/>
</svg>
